# xmcd CD database file
#
# Track frame offsets:
#	150
#	36113
#	62967
#	97978
#	131084
#	165665
#	194842
#	226342
#	260515
#	272824
#	292094
#	301760
#
# Disc length: 4254 seconds
#
# Revision: 1
# Processed by: cddbd v1.5.1PL0 Copyright (c) Steve Scherf et al.
# Submitted via: CDex 1.51
#
DISCID=b3109c0c
DTITLE=The Campbell Brothers - Sacred Steel on Tour
DYEAR=2001
DGENRE=Gospel
TTITLE0=Thank Ya'
TTITLE1=Put a Little Love in Your Heart
TTITLE2=A Prayer Meeting at Mary's House
TTITLE3=I'll Fly Away
TTITLE4=I've Got a Feeling
TTITLE5=Scott's Testimony
TTITLE6=Pass Me Not
TTITLE7=Didn't it Rain
TTITLE8=Love Lifted Me
TTITLE9=J-E-S-U-S
TTITLE10=Morning Train
TTITLE11=Oooh Ooooh
EXTD=YEAR: 2001
EXTT0=
EXTT1=
EXTT2=
EXTT3=
EXTT4=
EXTT5=
EXTT6=
EXTT7=
EXTT8=
EXTT9=
EXTT10=
EXTT11=
PLAYORDER=
